<svg width="96" height="96" viewBox="0 0 96 96" fill="none" xmlns="http://www.w3.org/2000/svg">
  <rect x="6" y="6" width="84" height="84" rx="22" fill="#08111F"/>
  <rect x="6.75" y="6.75" width="82.5" height="82.5" rx="21.25" stroke="url(#frame)" stroke-width="1.5"/>
  <path d="M22 52C31 29 65 21 75 44C82 60 65 76 45 73C26 70 17 63 22 52Z" fill="url(#core)" fill-opacity="0.92"/>
  <path d="M24 50C32 39 43 31 57 29C67 28 75 32 80 40" stroke="#A78BFA" stroke-opacity="0.7" stroke-width="2" stroke-linecap="round"/>
  <path d="M18 59C31 68 47 69 62 62C73 57 80 49 83 39" stroke="#22D3EE" stroke-opacity="0.75" stroke-width="2" stroke-linecap="round"/>
  <circle cx="48" cy="48" r="12" fill="#07101D" stroke="#BFF7FF" stroke-opacity="0.78" stroke-width="1.5"/>
  <circle cx="48" cy="48" r="4" fill="#67E8F9"/>
  <circle cx="25" cy="53" r="3.5" fill="#22D3EE"/>
  <circle cx="75" cy="44" r="3.5" fill="#A78BFA"/>
  <circle cx="46" cy="73" r="3.5" fill="#67E8F9"/>
  <path d="M48 36V27" stroke="#67E8F9" stroke-opacity="0.7" stroke-width="1.5" stroke-linecap="round"/>
  <path d="M60 54L69 62" stroke="#A78BFA" stroke-opacity="0.65" stroke-width="1.5" stroke-linecap="round"/>
  <path d="M36 55L29 64" stroke="#22D3EE" stroke-opacity="0.65" stroke-width="1.5" stroke-linecap="round"/>
  <defs>
    <linearGradient id="frame" x1="14" y1="12" x2="84" y2="86" gradientUnits="userSpaceOnUse">
      <stop stop-color="#67E8F9"/>
      <stop offset="0.48" stop-color="#22D3EE" stop-opacity="0.45"/>
      <stop offset="1" stop-color="#A78BFA"/>
    </linearGradient>
    <linearGradient id="core" x1="23" y1="67" x2="76" y2="31" gradientUnits="userSpaceOnUse">
      <stop stop-color="#22D3EE"/>
      <stop offset="0.55" stop-color="#38BDF8"/>
      <stop offset="1" stop-color="#A78BFA"/>
    </linearGradient>
  </defs>
</svg>
